<svg width="140" height="120" viewBox="0 0 140 120" fill="none" xmlns="http://www.w3.org/2000/svg">
<path d="M70 108C102.033 108 128 94.5685 128 78C128 61.4315 102.033 48 70 48C37.9675 48 12 61.4315 12 78C12 94.5685 37.9675 108 70 108Z" fill="#F0EDE8"/>
<path d="M70 100C102.033 100 128 86.5685 128 70C128 53.4315 102.033 40 70 40C37.9675 40 12 53.4315 12 70C12 86.5685 37.9675 100 70 100Z" fill="#F7F4F0" stroke="#1A1208" stroke-opacity="0.12" stroke-width="2"/>
<path d="M70 81C86.5685 81 100 74.2843 100 66C100 57.7157 86.5685 51 70 51C53.4315 51 40 57.7157 40 66C40 74.2843 53.4315 81 70 81Z" stroke="#EA6A1E" stroke-width="3"/>
<path d="M70 75C80.4934 75 89 70.9706 89 66C89 61.0294 80.4934 57 70 57C59.5066 57 51 61.0294 51 66C51 70.9706 59.5066 75 70 75Z" stroke="#F6B27A" stroke-width="2"/>
<path d="M24 50V59.3838C24 60.8584 26.025 62.0649 28.5 62.0649C29.6935 62.0649 30.8381 61.7824 31.682 61.2796C32.5259 60.7768 33 60.0949 33 59.3838V50M28.5 50V82" stroke="#1A1208" stroke-width="2.5" stroke-linecap="round" stroke-linejoin="round"/>
<path d="M113 49V65M113 81V65M113 65H108C108 58.2952 109.25 52.2 113 50.5238V65Z" stroke="#1A1208" stroke-width="2.5" stroke-linecap="round" stroke-linejoin="round"/>
<path d="M70 34C72.2091 34 74 32.2091 74 30C74 27.7909 72.2091 26 70 26C67.7909 26 66 27.7909 66 30C66 32.2091 67.7909 34 70 34Z" fill="#EA6A1E"/>
<path d="M52 38.5C53.3807 38.5 54.5 37.3807 54.5 36C54.5 34.6193 53.3807 33.5 52 33.5C50.6193 33.5 49.5 34.6193 49.5 36C49.5 37.3807 50.6193 38.5 52 38.5Z" fill="#F6B27A"/>
<path d="M88 38.5C89.3807 38.5 90.5 37.3807 90.5 36C90.5 34.6193 89.3807 33.5 88 33.5C86.6193 33.5 85.5 34.6193 85.5 36C85.5 37.3807 86.6193 38.5 88 38.5Z" fill="#F6B27A"/>
</svg>
